/* XPM */
static const char * snes_xpm[] = {
"64 64 93 2",
"  	c None",
". 	c #D2D2D2",
"+ 	c #C6C9C6",
"@ 	c #C9C9C7",
"# 	c #C4C5C5",
"$ 	c #C6C7CA",
"% 	c #D0D0CE",
"& 	c #CCCCCC",
"* 	c #C6CACB",
"= 	c #CCCDD1",
"- 	c #E4E4EA",
"; 	c #575A61",
"> 	c #55595E",
", 	c #595C62",
"' 	c #53575A",
") 	c #424246",
"! 	c #CED1D1",
"~ 	c #CED0CF",
"{ 	c #403B52",
"] 	c #3A3C45",
"^ 	c #84858A",
"/ 	c #9C9DA2",
"( 	c #A6A9AE",
"_ 	c #979A9F",
": 	c #A5A6AA",
"< 	c #A8A8B0",
"[ 	c #414552",
"} 	c #3A3E4A",
"| 	c #3D4351",
"1 	c #3D434E",
"2 	c #363A44",
"3 	c #23262C",
"4 	c #3D4246",
"5 	c #41444C",
"6 	c #43484D",
"7 	c #282C34",
"8 	c #2D313C",
"9 	c #141622",
"0 	c #1B1F29",
"a 	c #3E4854",
"b 	c #1D232A",
"c 	c #171E29",
"d 	c #151A23",
"e 	c #1E2227",
"f 	c #363D49",
"g 	c #374045",
"h 	c #252932",
"i 	c #181C23",
"j 	c #1A1A1C",
"k 	c #16181E",
"l 	c #13151B",
"m 	c #E4EBF3",
"n 	c #26292E",
"o 	c #3B3D53",
"p 	c #2B2F38",
"q 	c #C7CBD1",
"r 	c #121116",
"s 	c #191718",
"t 	c #171916",
"u 	c #191917",
"v 	c #FEFEFE",
"w 	c #292A2E",
"x 	c #4A4A54",
"y 	c #494B58",
"z 	c #272D39",
"A 	c #34373E",
"B 	c #39393E",
"C 	c #B7B9B6",
"D 	c #010101",
"E 	c #01030B",
"F 	c #000410",
"G 	c #151700",
"H 	c #777745",
"I 	c #211F2C",
"J 	c #414439",
"K 	c #3E3F00",
"L 	c #797838",
"M 	c #11100B",
"N 	c #454658",
"O 	c #424954",
"P 	c #40462C",
"Q 	c #505D05",
"R 	c #707926",
"S 	c #363349",
"T 	c #01090C",
"U 	c #2D3037",
"V 	c #404833",
"W 	c #6E791B",
"X 	c #768020",
"Y 	c #323C3E",
"Z 	c #0B0916",
"` 	c #2C2F40",
" .	c #48445B",
"                                                                                                                                ",
"                                                                                                                                ",
"                                                                                                                                ",
"                                                                                                                                ",
"                                                                                                                                ",
"                                                                                                                                ",
"                                                                                                                                ",
"                                                                                                                                ",
"                                                                                                                                ",
"                                                                                                                                ",
"                      . + @ . # $ . @ $ % & + % * + . . $ % . $ . % * . . $ $ . @ # = # # % # & . & @ % -                       ",
"; > , ; ; ; > > ' > ) ! % ~ @ & & & & & & @ & % $ & & & & & & % & % * @ & @ % & & & @ & & & & & & # % { ] ^ / / ( _ / : / : < < ",
"[ } | [ } 1 1 1 2 3 4 = * $ & % & & & & & & & & % & & & $ @ % & & & = & @ % & & % * % & & % @ % . & * 5 6 7 5 1 | 4 4 1 1 1 [ 1 ",
"| [ [ [ 1 1 [ 1 8 9 5 = . = = & & & & & @ % & & @ % % & & % = @ % @ & & & & & $ & & % @ $ = & = * = = } 1 0 } 1 1 | | 1 | | | | ",
"[ 5 } | a 1 1 | 7 b ] & & @ & & & & & & & % @ & = & $ @ & & * % & $ @ % % & & % % & * & & @ & % % & = 5 ] c 1 | 1 a 1 1 | | } [ ",
"1 1 [ 1 1 1 1 1 7 d { = & . @ & & & & & & & & & $ & % % @ % % & & % & & & & & & @ & % & & & & & & % @ { 5 e f 1 1 1 1 1 [ [ { [ ",
"4 1 g 1 1 1 4 1 h i ) & & % & & & & & & & & & & & & & & & & & & % & & & & & & & & & & & % & & & & & = } { j ] 1 1 1 1 1 1 g 1 1 ",
"d d d k d d l d l l 6 = & @ % & & & & & & & & & & & % & & & & & & & & & & & & & & & & & & & & & & * & ) 6 l b e e b b d b b b m ",
"1 1 1 1 1 1 1 1 n i 4 * & = & & & & & & & % & & & & & & & & & & & & & & & & & & & & & & & & & = = = = 1 } i } o 1 | 1 1 a g a 1 ",
"1 1 1 1 1 1 1 1 p c 5 = = & @ & & & & & & & & & & & & & & & & & & & & & & & & & & & & & & & & & * = = 4 5 9 } 5 1 1 1 1 1 1 1 1 ",
"1 | 1 1 1 1 a 1 3 c 5 = & ~ % @ & & & & & & & & & & & & % & & & & & & & & & & & & & & & & & & & = = * } 5 i } | 1 1 a 1 1 1 | 1 ",
"1 1 1 1 1 1 1 1 7 c ) q & & % @ & & & & & & & & & & & & & & & & & & & & & & & & & & & & & & & & $ = = 5 [ 9 } | | a g | a | | a ",
"| 1 a | 1 1 1 1 7 d 4 ! & * @ & & & & & & & & & & & & & & & & & & & & & & % & & @ % & & & & & & = = * ] 5 k ] 4 1 1 1 1 1 1 1 1 ",
"1 1 | | 1 1 1 1 7 i 5 * & ~ ~ @ & & & & & & & & & & & & & & & & & & & & & & & & & & & & & & & & * = = 5 { k } | 1 a 1 1 1 | | | ",
"j j j j i j j i r s 5 & & * % & & & & & & & & & & & & % & & & & & & & & & & & & & & & & & & & & & & % { 5 i k k k j t u j t j v ",
"1 1 1 5 5 | 5 1 7 i 5 = & = & @ & & % & & & & & & = & & & & & & = & & & % = = & & & & & & = & & ! = & 4 1 d } | | 1 | 1 1 1 [ | ",
"| | | | | | 1 1 p i 5 * = * * . & & & & & & & & & & & @ @ & & & & % & % & & & & @ & & & ~ & % & + ! * g 5 k f 1 1 a g 1 a 1 | } ",
"| 1 | | [ 1 5 1 w j { = & & % @ @ & & & & & @ & @ & & & & & & & @ & @ @ & @ & @ & & & & & & & & = q . { 5 9 } [ 1 1 1 1 1 1 | | ",
"| | 1 1 1 1 1 1 7 i 6 5 x x x y x y y y y y y y y y y y y y y y y y y y x y y y y y y y y x y y y x x [ 1 d } 4 [ f | | 1 1 1 g ",
"1 | 1 1 1 1 1 1 z d } | | [ | | [ [ | | | | | | [ [ | | | | | | | | | | [ { | | | | | | | 1 o 1 1 1 1 4 g 9 1 | 1 | o | a | | a ",
"1 1 1 1 1 1 1 1 h c | 1 | | | | 1 1 1 1 1 1 1 1 1 1 1 1 1 1 1 1 1 1 1 1 1 1 1 1 1 1 1 1 1 1 1 | | [ 1 1 1 c f o | a | | | | a | ",
"2 2 2 A B B B B 3 k 6 5 1 5 | 1 1 1 | 1 1 1 | 1 1 1 | 1 1 | 1 1 1 1 | 1 1 | 1 1 1 1 | 1 | 1 1 1 | | 1 1 5 k n 3 7 h n h 3 w e C ",
"| 1 1 1 1 1 1 1 h d 1 1 1 [ | | | 1 5 | 1 | 1 1 | 1 5 1 1 | 1 1 a 1 | 1 | | 1 1 1 1 } 1 1 } 1 1 } | 1 | 1 d 1 g | | 1 1 1 | 1 1 ",
"1 1 1 1 1 1 1 1 h b 5 1 1 } 1 5 1 1 | 4 1 1 1 1 1 1 | 1 1 1 1 1 1 5 5 1 1 5 | } | 5 | [ [ | | 5 1 4 5 [ } c 2 1 1 1 1 1 1 1 1 | ",
"1 1 1 1 1 1 1 4 z d 4 1 A 3 e b e e 3 e e e e e e e e e e e e e b e 3 e 3 e 3 0 e e e e e e e e 3 3 p ] 5 9 } | 1 1 1 1 1 1 1 1 ",
"1 1 1 a 1 1 6 1 7 d } 2 D D D D D D D D D D D D D D D D D D D D D D D D D D D D D D D D D D D D D D E 3 5 9 } 4 | | | | 1 1 1 1 ",
"1 g | 1 1 1 1 1 z c 4 E E E D D D D D D D D D D D D D D D D D D D D D D D D D D D D D D D D D D D D D E 5 9 1 1 | 1 | | | 1 1 1 ",
"1 1 1 1 1 1 1 1 h d 5 E e n 3 3 3 h h h h h h h h h h h h h h h h h h h h h h h h 3 h h h h h h h 3 0 E } 0 f 1 1 1 o | 1 1 1 1 ",
"1 1 1 1 1 1 1 1 z d 1 E 1 4 4 1 1 | | | | | | | | | | | a 1 | | | | | [ [ | } [ | [ | o | [ | 1 1 4 1 E 5 d f | f | 1 g 1 1 1 1 ",
"1 1 1 1 1 1 4 1 n i 1 E g 1 a 1 1 1 1 1 5 1 1 5 1 1 1 1 1 1 1 1 1 1 1 1 1 1 1 1 1 1 1 1 1 4 1 1 1 [ 1 F 1 d g | 1 1 1 1 | 1 1 1 ",
"g | g | 1 1 1 1 7 k 5 E } 5 1 a 1 1 | 1 1 1 | 1 1 1 | | 1 1 | 1 1 1 | 1 1 | 1 1 1 1 | 1 1 | 1 | [ 1 4 E 4 d ] 1 | | | 1 1 1 1 1 ",
"| | 1 1 1 | 1 1 7 k ) E } | 1 1 1 | 1 1 | 1 | 1 | 1 1 1 1 | 1 1 1 1 | 1 1 | 1 | 1 1 | 1 1 1 1 } | 1 1 E 4 9 } 1 | | g 1 1 1 1 1 ",
"| 1 g 1 1 1 1 1 7 k 4 E } | 1 1 1 1 | | 1 | 1 1 | 1 1 1 1 1 | | 1 | 1 1 1 1 | 1 1 1 1 1 1 | 1 1 [ } } E 5 d } 1 1 f | 1 1 1 1 g ",
"| 1 | | 1 1 1 1 7 d 5 E } 5 1 1 | 1 1 1 1 1 1 | 1 1 | | | 1 1 1 1 1 1 | | 1 1 1 1 1 1 | 1 | 1 1 [ [ 1 E 4 i } 1 | | 1 1 g 1 | | ",
"| 1 1 1 1 1 1 1 7 k 5 E 4 1 1 a | 1 1 1 1 1 | 1 1 1 | 1 | 1 1 1 | 1 1 | 1 1 | 1 | 1 1 | 1 1 | 1 o 1 } E 4 c 1 1 1 1 1 1 | 1 1 g ",
"1 1 1 1 1 | 1 1 7 j ) E 1 1 1 1 1 1 | | | 1 | 1 | 1 1 1 1 1 | | | 1 1 | 1 | 1 1 | 1 1 | 1 | 1 1 [ 5 4 E 4 i ] 1 | a 1 1 1 1 | | ",
"| 1 1 1 1 | 5 1 7 i 4 E 4 1 1 1 1 | 1 1 | 1 1 1 | 1 1 1 1 | 1 1 1 1 1 1 1 1 | | 1 1 1 1 1 1 | | | [ 1 E 1 i g 1 | | 1 1 1 1 | 1 ",
"| 1 1 1 1 | 5 1 7 i 4 E 1 1 1 a 1 1 | 1 1 1 1 [ 1 1 | | 1 1 | 1 1 | | 1 | 1 1 1 1 | | 1 | 1 1 1 [ [ 4 E 1 d 1 1 | a 1 1 1 1 1 | ",
"1 1 | ) G H D ) A 9 4 E f | [ 1 | 1 | 1 1 1 1 1 | 1 | a 1 1 | | | 1 1 1 1 1 1 | 1 1 1 1 1 1 | | | a 1 E 5 I } J K L M N | 1 O } ",
"4 1 5 P Q R D N S b g T 4 1 } [ 1 | | 1 | | | 1 | | 1 1 [ | | | 1 | | 1 | | | 1 1 | 1 1 | | | 1 g 1 } E 4 U } V W X D 1 | | 1 1 ",
"| | 1 | { { 6 ] 4 7 6 E Y f } S 2 2 f ] f 2 f 4 2 f f 2 ] 4 2 ] f 2 A 1 2 f ] ] f 2 f 2 2 f 2 2 f } ] Z N ` 1 1  .S { | 4 4 4 [ ",
"                                                                                                                                ",
"                                                                                                                                ",
"                                                                                                                                ",
"                                                                                                                                ",
"                                                                                                                                ",
"                                                                                                                                ",
"                                                                                                                                ",
"                                                                                                                                ",
"                                                                                                                                ",
"                                                                                                                                ",
"                                                                                                                                ",
"                                                                                                                                ",
"                                                                                                                                "};
