/* XPM */
static const char *snes_xpm[] = {
/* columns rows colors chars-per-pixel */
"64 64 120 2 ",
"   c #010101",
".  c #01030B",
"X  c #01090C",
"o  c #151700",
"O  c #11100B",
"+  c #000410",
"@  c #0B0916",
"#  c #121116",
"$  c #171916",
"%  c #191917",
"&  c #13151B",
"*  c #191718",
"=  c #16181E",
"-  c #1A1A1C",
";  c #3E3F00",
":  c #141622",
">  c #151A23",
",  c #181C23",
"<  c #171E29",
"1  c #1B1F29",
"2  c #211F2C",
"3  c #1E2227",
"4  c #1D232A",
"5  c #252724",
"6  c #23262C",
"7  c #26292E",
"8  c #292A2E",
"9  c #252932",
"0  c #282C34",
"q  c #272D39",
"w  c #2B2F38",
"e  c #2D3037",
"r  c #2D313C",
"t  c #34373E",
"y  c #323C3E",
"u  c #39393E",
"i  c #505D05",
"p  c #6E791B",
"a  c #40462C",
"s  c #404833",
"d  c #414439",
"f  c #707926",
"g  c #797838",
"h  c #2C2F40",
"j  c #363A44",
"k  c #3A3C45",
"l  c #363349",
"z  c #363D49",
"x  c #3A3E4A",
"c  c #3B3D53",
"v  c #403B52",
"b  c #374045",
"n  c #3D4246",
"m  c #3D434E",
"M  c #3D4351",
"N  c #3E4854",
"B  c #3F4458",
"V  c #424246",
"C  c #41444C",
"Z  c #43484D",
"A  c #414552",
"S  c #424954",
"D  c #4A4A54",
"F  c #454658",
"G  c #48445B",
"H  c #494B58",
"J  c #53575A",
"K  c #55595E",
"L  c #777745",
"P  c #575A61",
"I  c #595C62",
"U  c #768020",
"Y  c #84858A",
"T  c #979A9F",
"R  c #9C9DA2",
"E  c #9FA0A5",
"W  c #A5A6AA",
"Q  c #A6A9AE",
"!  c #A8A8B0",
"~  c #B7B9B6",
"^  c #BFC5C1",
"/  c #C4C5C5",
"(  c #C6C9C6",
")  c #C9C9C7",
"_  c #C6C7CA",
"`  c #C6CACB",
"'  c #CCCCCC",
"]  c #CED0CF",
"[  c #D0D0CE",
"{  c #C7CBD1",
"}  c #CCCDD1",
"|  c #D1CFDA",
" . c #CED1D1",
".. c #D2D2D2",
"X. c #D3D5DA",
"o. c #D9DBDA",
"O. c #DBDFE1",
"+. c #DDE2E3",
"@. c #DFE4E8",
"#. c #E6E6E6",
"$. c #EAEAE7",
"%. c #E4E4EA",
"&. c #E5E8ED",
"*. c #EDEDEC",
"=. c #F1EDED",
"-. c #EFF1E6",
";. c #EEF0EC",
":. c #F1F1EE",
">. c #FAFCEF",
",. c #E4EBF3",
"<. c #EEEEF1",
"1. c #F1EEF2",
"2. c #F2EFFA",
"3. c #EEF1F3",
"4. c #F1F1F2",
"5. c #F8F3F7",
"6. c #F9F9F6",
"7. c #F2F7FD",
"8. c #F3F9FD",
"9. c #FEFEFE",
/* pixels */
"9.9.9.9.9.9.9.9.9.9.9.9.9.9.9.9.9.9.9.9.9.9.9.9.9.9.9.9.9.9.9.9.9.9.9.9.9.9.9.9.9.9.9.9.9.9.9.9.9.9.9.9.9.9.9.9.9.9.9.9.9.9.9.9.",
"9.9.9.9.9.9.9.9.9.9.9.9.9.9.9.9.9.9.9.9.9.9.9.9.9.9.9.9.9.9.9.9.9.9.9.9.9.9.9.9.9.9.9.9.9.9.9.9.9.9.9.9.9.9.9.9.9.9.9.9.9.9.9.9.",
"9.9.9.9.9.9.9.9.9.9.9.9.9.9.9.9.9.9.9.9.9.9.9.9.9.9.9.9.9.9.9.9.9.9.9.9.9.9.9.9.9.9.9.9.9.9.9.9.9.9.9.9.9.9.9.9.9.9.9.9.9.9.9.9.",
"9.9.9.9.9.9.9.9.9.9.9.9.9.9.9.9.9.9.9.9.9.9.9.9.9.9.9.9.9.9.9.9.9.9.9.9.9.9.9.9.9.9.9.9.9.9.9.9.9.9.9.9.9.9.9.9.9.9.9.9.9.9.9.9.",
"9.9.9.9.9.9.6.9.9.6.9.9.9.9.9.9.9.9.9.6.9.9.9.9.9.9.9.9.9.9.9.9.9.9.9.9.9.9.9.9.9.9.9.9.9.9.9.9.9.9.9.9.9.9.9.9.9.9.9.9.9.9.9.9.",
"9.9.9.9.9.9.9.9.9.9.9.9.9.9.9.9.9.9.9.9.9.9.9.9.9.9.9.9.9.9.9.9.9.9.9.9.9.9.9.9.9.9.9.9.9.9.9.9.9.9.9.9.9.9.9.9.9.9.9.9.9.9.9.9.",
"9.9.9.9.9.9.9.9.9.9.9.9.9.9.9.9.9.9.9.9.9.9.9.9.9.9.9.9.9.9.9.9.9.9.9.6.9.9.9.9.9.9.9.9.9.9.9.9.9.9.9.9.9.9.9.9.9.9.9.9.9.9.9.9.",
"*.9.6.4.9.6.*.9.9.4.9.9.*.4.9.*.*.9.4.*.9.4.&.9.<.4.9.6.4.9.9.*.9.6.4.9.9.4.*.9.:.1.9.*.1.9.*.1.9.4.*.9.9.6.4.9.&.9.9.6.6.9.4.*.",
"9.;.*.9.3.*.9.*.*.9.4.4.9.9.<.9.9.1.9.6.4.9.5.1.9.9.1.*.9.4.*.9.<.&.9.5.*.9.9.:.9.9.4.9.9.*.9.9.:.9.9.*.3.9.1.*.9.$.:.6.:.;.9.9.",
"9.*.3.9.=.*.9.4.<.6.$.*.9.6.$.6.9.$.5.9.&.6.9.*.6.6.*.*.6.=.#.9.$.4.6.*.*.9.5.*.5.6.$.9.9.*.9.5.$.6.6.:.*.9.*.<.9.*.4.6.5.:.9.9.",
"4.9.9.<.9.9.<.9.6.+.o...( ) ../ _ ..) _ [ ' ( [ ` ( ...._ [ .._ ..[ ` ...._ _ ..) / } / / [ / ' ..' ) [ %.*.9.9.*.9.9.4.9.6.*.<.",
"P K I P P P K K J K V  .[ ] ) ' ' ' ' ' ' ) ' [ _ ' ' ' ' ' ' [ ' [ ` ) ' ) [ ' ' ' ) ' ' ' ' ' ' / [ v k Y R R Q T R W R W ! ! ",
"A x M A x m m m j 6 n } ` _ ' [ ' ' ' ' ' ' ' ' [ ' ' ' _ ) [ ' ' ' } ' ) [ ' ' [ ` [ ' ' [ ) [ ..' ` C Z 0 C m M n n m m m A m ",
"M A A A m m A m r : C } ..} } ' ' ' ' ' ) [ ' ' ) [ [ ' ' [ } ) [ ) ' ' ' ' ' _ ' ' [ ) _ } ' } ` } } x m 1 x m m M M m M M M M ",
"A C x M N m m M 0 4 k ' ' ) ' ' ' ' ' ' ' [ ) ' } ' _ ) ' ' ` [ ' _ ) [ [ ' ' [ [ ' ` ' ' ) ' [ [ ' } C k < m M m N m m M M x A ",
"m m A m m m m m 0 > v } ' ..) ' ' ' ' ' ' ' ' ' _ ' [ [ ) [ [ ' ' [ ' ' ' ' ' ' ) ' [ ' ' ' ' ' ' [ ) v C 3 z m m m m m A A v A ",
"n m b m m m n m 9 , V ' ' [ ' ' ' ' ' ' ' ' ' ' ' ' ' ' ' ' ' ' [ ' ' ' ' ' ' ' ' ' ' ' [ ' ' ' ' ' } x v - k m m m m m m b m m ",
"> > > = > > & > & & Z } ' ) [ ' ' ' ' ' ' ' ' ' ' ' [ ' ' ' ' ' ' ' ' ' ' ' ' ' ' ' ' ' ' ' ' ' ' ` ' V Z & 4 3 3 4 4 > 4 4 4 ,.",
"m m m m m m m m 7 , n ` ' } ' ' ' ' ' ' ' [ ' ' ' ' ' ' ' ' ' ' ' ' ' ' ' ' ' ' ' ' ' ' ' ' ' } } } } m x , x c m M m m N b N m ",
"m m m m m m m m w < C } } ' ) ' ' ' ' ' ' ' ' ' ' ' ' ' ' ' ' ' ' ' ' ' ' ' ' ' ' ' ' ' ' ' ' ' ` } } n C : x C m m m m m m m m ",
"m M m m m m N m 6 < C } ' ] [ ) ' ' ' ' ' ' ' ' ' ' ' ' [ ' ' ' ' ' ' ' ' ' ' ' ' ' ' ' ' ' ' ' } } ` x C , x M m m N m m m M m ",
"m m m m m m m m 0 < V { ' ' [ ) ' ' ' ' ' ' ' ' ' ' ' ' ' ' ' ' ' ' ' ' ' ' ' ' ' ' ' ' ' ' ' ' _ } } C A : x M M N b M N M M N ",
"M m N M m m m m 0 > n  .' ` ) ' ' ' ' ' ' ' ' ' ' ' ' ' ' ' ' ' ' ' ' ' ' [ ' ' ) [ ' ' ' ' ' ' } } ` k C = k n m m m m m m m m ",
"m m M M m m m m 0 , C ` ' ] ] ) ' ' ' ' ' ' ' ' ' ' ' ' ' ' ' ' ' ' ' ' ' ' ' ' ' ' ' ' ' ' ' ' ` } } C v = x M m N m m m M M M ",
"- - - - , - - , # * C ' ' ` [ ' ' ' ' ' ' ' ' ' ' ' ' [ ' ' ' ' ' ' ' ' ' ' ' ' ' ' ' ' ' ' ' ' ' ' [ v C , = = = - $ % - $ - 9.",
"m m m C C M C m 0 , C } ' } ' ) ' ' [ ' ' ' ' ' ' } ' ' ' ' ' ' } ' ' ' [ } } ' ' ' ' ' ' } ' '  .} ' n m > x M M m M m m m A M ",
"M M M M M M m m w , C ` } ` ` ..' ' ' ' ' ' ' ' ' ' ' ) ) ' ' ' ' [ ' [ ' ' ' ' ) ' ' ' ] ' [ ' (  .` b C = z m m N b m N m M x ",
"M m M M A m C m 8 - v } ' ' [ ) ) ' ' ' ' ' ) ' ) ' ' ' ' ' ' ' ) ' ) ) ' ) ' ) ' ' ' ' ' ' ' ' } { ..v C : x A m m m m m m M M ",
"M M m m m m m m 0 , Z C D D D H D H H H H H H H H H H H H H H H H H H H D H H H H H H H H D H H H D D A m > x n A z M M m m m b ",
"m M m m m m m m q > x M M A M M A A M M M M M M A A M M M M M M M M M M A v M M M M M M M m c m m m m n b : m M m M c M N M M N ",
"m m m m m m m m 9 < M m M M M M m m m m m m m m m m m m m m m m m m m m m m m m m m m m m m m M M A m m m < z c M N M M M M N M ",
"j j j t u u u u 6 = Z C m C M m m m M m m m M m m m M m m M m m m m M m m M m m m m M m M m m m M M m m C = 7 6 0 9 7 9 6 8 3 ~ ",
"M m m m m m m m 9 > m m m A M M M m C M m M m m M m C m m M m m N m M m M M m m m m x m m x m m x M m M m > m b M M m m m M m m ",
"m m m m m m m m 9 4 C m m x m C m m M n m m m m m m M m m m m m m C C m m C M x M C M A A M M C m n C A x < j m m m m m m m m M ",
"m m m m m m m n q > n m t 6 3 4 3 3 6 3 3 3 3 3 3 3 3 3 3 3 3 3 4 3 6 3 6 3 6 1 3 3 3 3 3 3 3 3 6 6 w k C : x M m m m m m m m m ",
"m m m N m m Z m 0 > x j                                                                             . 6 C : x n M M M M m m m m ",
"m b M m m m m m q < n . . .                                                                           . C : m m M m M M M m m m ",
"m m m m m m m m 9 > C . 3 7 6 6 6 9 9 9 9 9 9 9 9 9 9 9 9 9 9 9 9 9 9 9 9 9 9 9 9 6 9 9 9 9 9 9 9 6 1 . x 1 z m m m c M m m m m ",
"m m m m m m m m q > m . m n n m m M M M M M M M M M M M N m M M M M M A A M x A M A M c M A M m m n m . C > z M z M m b m m m m ",
"m m m m m m n m 7 , m . b m N m m m m m C m m C m m m m m m m m m m m m m m m m m m m m m n m m m A m + m > b M m m m m M m m m ",
"b M b M m m m m 0 = C . x C m N m m M m m m M m m m M M m m M m m m M m m M m m m m M m m M m M A m n . n > k m M M M m m m m m ",
"M M m m m M m m 0 = V . x M m m m M m m M m M m M m m m m M m m m m M m m M m M m m M m m m m x M m m . n : x m M M b m m m m m ",
"M m b m m m m m 0 = n . x M m m m m M M m M m m M m m m m m M M m M m m m m M m m m m m m M m m A x x . C > x m m z M m m m m b ",
"M m M M m m m m 0 > C . x C m m M m m m m m m M m m M M M m m m m m m M M m m m m m m M m M m m A A m . n , x m M M m m b m M M ",
"M m m m m m m m 0 = C . n m m N M m m m m m M m m m M m M m m m M m m M m m M m M m m M m m M m c m x . n < m m m m m m M m m b ",
"m m m m m M m m 0 - V . m m m m m m M M M m M m M m m m m m M M M m m M m M m m M m m M m M m m A C n . n , k m M N m m m m M M ",
"M m m m m M C m 0 , n . n m m m m M m m M m m m M m m m m M m m m m m m m m M M m m m m m m M M M A m . m , b m M M m m m m M m ",
"M m m m m M C m 0 , n . m m m N m m M m m m m A m m M M m m M m m M M m M m m m m M M m M m m m A A n . m > m m M N m m m m m M ",
"m m M V o L   V t : n . z M A m M m M m m m m m M m M N m m M M M m m m m m m M m m m m m m M M M N m . C 2 x d ; g O F M m S x ",
"n m C a i f   F l 4 b X n m x A m M M m M M M m M M m m A M M M m M M m M M M m m M m m M M M m b m x . n e x s p U   m M M m m ",
"M M m M v v Z k n 0 Z . y z x l j j z k z j z n j z z j k n j k z j t m j z k k z j z j j z j j z x k @ F h m m G l v M n n n A ",
",.7.7.&.6.5.%.9.8.O.'  .^ ( ' ` / ' / / ] ( / ) / ( ] ' / '  ./ ] ] ( ] ] / ` ' ^ / ] / / ] / / } _ / [ ..+.O.@.X.%.O.X.+.@.X.X.",
"8.;.;.6.:.;.9.*.*.9.<.&.9.9.&.9.9.#.6.6.*.6.6.*.6.6.#.$.6.$.*.6.*.#.6.*.$.6.6.*.6.6.#.6.6.$.6.6.*.5.6.1.1.9.3.;.6.$.:.9.3.3.9.9.",
"4.9.9.=.9.6.:.9.9.=.6.9.&.=.6.$.$.9.1.*.9.4.&.9.<.3.9.9.4.9.9.<.9.9.3.9.9.*.<.9.<.<.9.3.4.9.<.<.9.1.:.6.>.$.6.9.*.9.9.1.8.9.=.*.",
";.6.9.4.9.9.<.9.9.*.9.9.2.2.6.:.4.9.*.<.6.<.4.9.4.*.9.9.<.9.9.4.9.9.&.9.9.<.*.9.4.*.9.*.*.9.<.4.9.<.*.6.9.<.9.9.4.9.9.=.9.9.*.:.",
"9.*.=.9.*.3.8.4.*.9.$.*.9.9.;.6.6.*.9.9.:.9.6.*.6.9.*.:.6.*.*.6.*.:.6.:.*.9.9.*.9.9.*.9.9.*.9.9.3.9.6.:.*.9.1.1.9.;.4.6.=.*.9.9.",
"9.9.9.9.9.9.9.9.9.9.9.9.9.9.9.9.9.9.9.9.9.9.9.9.9.9.9.9.9.9.9.9.9.9.9.9.9.9.9.9.9.9.9.9.9.9.9.9.9.9.9.9.9.9.9.9.9.9.9.9.9.9.9.9.",
"9.9.9.9.9.9.9.9.9.9.9.9.9.9.9.9.9.9.9.9.9.9.9.9.9.9.9.9.9.9.9.9.9.9.9.9.9.9.9.9.9.9.9.9.9.9.9.9.9.9.9.9.9.9.9.9.9.9.9.9.9.9.9.9.",
"9.9.9.9.9.9.9.9.9.9.9.9.9.9.9.9.9.9.9.9.9.9.9.9.9.9.9.9.9.9.9.9.9.9.9.9.9.9.9.9.9.9.9.9.9.9.9.9.9.9.9.9.9.9.9.9.9.9.9.9.9.9.9.9.",
"9.9.9.9.9.9.9.9.9.9.9.9.9.9.9.9.9.9.9.9.9.9.9.9.9.9.9.9.9.9.9.9.9.9.9.9.9.9.9.9.9.9.9.9.9.9.9.9.9.9.9.9.9.9.9.9.9.9.9.9.9.9.9.9.",
"9.9.9.9.9.9.9.9.9.9.9.9.9.9.9.9.9.9.9.9.9.9.9.9.9.9.9.9.9.9.9.9.9.9.9.9.9.9.9.9.9.9.9.9.9.9.9.9.9.9.9.9.9.9.9.9.9.9.9.9.9.9.9.9.",
"9.9.9.9.9.9.9.9.9.9.9.9.9.9.9.9.9.9.9.9.9.9.9.9.9.9.9.9.9.9.9.9.9.9.9.9.9.9.9.9.9.9.9.9.9.9.9.9.9.9.9.9.9.9.9.9.9.9.9.9.9.9.9.9.",
"9.9.9.9.9.9.9.9.9.9.9.9.9.9.9.9.9.9.9.9.9.9.9.9.9.9.9.9.9.9.9.9.9.9.9.9.9.9.9.9.9.9.9.9.9.9.9.9.9.9.9.9.9.9.9.9.9.9.9.9.9.9.9.9.",
"9.9.9.9.9.9.9.9.9.9.9.9.9.9.9.9.9.9.9.9.9.9.9.9.9.9.9.9.9.9.9.9.9.9.9.9.9.9.9.9.9.9.9.9.9.9.9.9.9.9.9.9.9.9.9.9.9.9.9.9.9.9.9.9."
};
